<?xml version="1.0" encoding="utf-8"?>
<!-- Generator: Adobe Illustrator 27.0.0, SVG Export Plug-In . SVG Version: 6.00 Build 0)  -->
<svg version="1.1" id="Layer_1" xmlns="http://www.w3.org/2000/svg" xmlns:xlink="http://www.w3.org/1999/xlink" x="0px" y="0px"
	 viewBox="0 0 64 64" style="enable-background:new 0 0 64 64;" xml:space="preserve">
<style type="text/css">
	.st0{fill:none;stroke:#444444;stroke-width:3;stroke-miterlimit:10;}
	.st1{fill:none;stroke:#444444;stroke-width:3;stroke-linecap:square;stroke-miterlimit:10;}
</style>
<path class="st0" d="M6.3,8.5h7.2c1,0,1.8,1.8,1.8,4v40c0,2.2-0.8,4-1.8,4H6.3c-1,0-1.8-1.8-1.8-4v-40C4.5,10.3,5.3,8.5,6.3,8.5z"/>
<path class="st0" d="M22.3,8.5h7.2c1,0,1.8,1.8,1.8,4v40c0,2.2-0.8,4-1.8,4h-7.2c-1,0-1.8-1.8-1.8-4v-40
	C20.5,10.3,21.3,8.5,22.3,8.5z"/>
<line class="st1" x1="50.5" y1="8.5" x2="46.5" y2="8.5"/>
<line class="st1" x1="36.5" y1="24.5" x2="36.5" y2="20.5"/>
<line class="st1" x1="36.5" y1="34.5" x2="36.5" y2="30.5"/>
<line class="st1" x1="36.5" y1="44.5" x2="36.5" y2="40.5"/>
<line class="st1" x1="60.5" y1="24.5" x2="60.5" y2="20.5"/>
<line class="st1" x1="60.5" y1="34.5" x2="60.5" y2="30.5"/>
<line class="st1" x1="60.5" y1="44.5" x2="60.5" y2="40.5"/>
<line class="st1" x1="50.5" y1="56.5" x2="46.5" y2="56.5"/>
<path class="st1" d="M40.5,8.5c-2.2,0-4,1.8-4,4v2"/>
<path class="st1" d="M56.5,8.5c2.2,0,4,1.8,4,4v2"/>
<path class="st1" d="M56.5,56.5c2.2,0,4-1.8,4-4v-2"/>
<path class="st1" d="M40.5,56.5c-2.2,0-4-1.8-4-4v-2"/>
</svg>
