<svg xmlns="http://www.w3.org/2000/svg" id="vuesax_outline_truck-tick" data-name="vuesax/outline/truck-tick" width="32" height="32" viewBox="0 0 32 32"><rect id="vuesax_outline_truck-tick-2" data-name="vuesax/outline/truck-tick" width="32" height="32" fill="none"></rect><g id="vuesax_outline_truck-tick-3" data-name="vuesax/outline/truck-tick"><g id="truck-tick"><path id="Vector" d="M15.667,18.027H1a1.007,1.007,0,0,1-1-1V8.52a1.013,1.013,0,0,1,.653-.947.991.991,0,0,1,1.107.293,4.221,4.221,0,0,0,3.333,1.48,4.193,4.193,0,0,0,2.8-1.133,3.645,3.645,0,0,0,.84-1.027A4.3,4.3,0,0,0,7.867,1.76,1,1,0,0,1,7.587.653,1.009,1.009,0,0,1,8.52,0h9.813a1.007,1.007,0,0,1,1,1V14.333a3.67,3.67,0,0,1-3.667,3.693ZM2,16.027H15.667a1.667,1.667,0,0,0,1.667-1.667V2.027H10.587a6.352,6.352,0,0,1,.747,2.853,6.252,6.252,0,0,1-.853,3.307,5.535,5.535,0,0,1-1.24,1.52A6.177,6.177,0,0,1,5.147,11.36a6.121,6.121,0,0,1-3.133-.747v5.413Z" transform="translate(1.667 1.64)" fill="#292d32"></path><path id="Vector-2" data-name="Vector" d="M23.667,22H22.333a1.007,1.007,0,0,1-1-1A1.667,1.667,0,1,0,18,21a1.007,1.007,0,0,1-1,1H11.667a1.007,1.007,0,0,1-1-1,1.667,1.667,0,1,0-3.333,0,1.007,1.007,0,0,1-1,1H5a5,5,0,0,1-5-5V13a1.007,1.007,0,0,1,1-1H15.667a1.667,1.667,0,0,0,1.667-1.667V1a1.007,1.007,0,0,1,1-1h2.453a3.664,3.664,0,0,1,3.187,1.853l2.28,3.987a1.027,1.027,0,0,1,0,1,.991.991,0,0,1-.867.493h-1.72a.33.33,0,0,0-.333.333v4a.33.33,0,0,0,.333.333h4a1.007,1.007,0,0,1,1,1v4a5,5,0,0,1-5,5ZM23.2,20h.467a3,3,0,0,0,3-3V14h-3a2.345,2.345,0,0,1-2.333-2.333v-4a2.336,2.336,0,0,1,2.333-2.333L22.24,2.84A1.669,1.669,0,0,0,20.787,2H19.333v8.333A3.665,3.665,0,0,1,15.667,14H2v3a3,3,0,0,0,3,3h.467a3.674,3.674,0,0,1,7.067,0h3.613A3.665,3.665,0,0,1,23.2,20Z" transform="translate(1.667 5.667)" fill="#292d32"></path><path id="Vector-3" data-name="Vector" d="M3.667,7.333A3.667,3.667,0,1,1,7.333,3.667,3.665,3.665,0,0,1,3.667,7.333ZM3.667,2A1.667,1.667,0,1,0,5.333,3.667,1.667,1.667,0,0,0,3.667,2Z" transform="translate(7 23)" fill="#292d32"></path><path id="Vector-4" data-name="Vector" d="M3.667,7.333A3.667,3.667,0,1,1,7.333,3.667,3.665,3.665,0,0,1,3.667,7.333ZM3.667,2A1.667,1.667,0,1,0,5.333,3.667,1.667,1.667,0,0,0,3.667,2Z" transform="translate(17.667 23)" fill="#292d32"></path><path id="Vector-5" data-name="Vector" d="M6.333,8.667h-4A2.345,2.345,0,0,1,0,6.333v-4A2.345,2.345,0,0,1,2.333,0h1.72A.976.976,0,0,1,4.92.507l2.28,4A1.05,1.05,0,0,1,7.333,5V7.667a1.007,1.007,0,0,1-1,1ZM2.333,2A.33.33,0,0,0,2,2.333v4a.33.33,0,0,0,.333.333h3v-1.4L3.467,2Z" transform="translate(23 11)" fill="#292d32"></path><path id="Vector-6" data-name="Vector" d="M6.309,12.667a6.175,6.175,0,0,1-4.747-2.2A5.733,5.733,0,0,1,1,9.72,6.106,6.106,0,0,1,0,6.48,6.253,6.253,0,0,1,2.269,1.467,6.319,6.319,0,0,1,6.2,0a6.546,6.546,0,0,1,4.32,1.587,6.3,6.3,0,0,1,1.293,7.907,5.535,5.535,0,0,1-1.24,1.52,6.177,6.177,0,0,1-4.093,1.653H6.309ZM6.309,2h-.08A4.354,4.354,0,0,0,3.536,3.013,4.3,4.3,0,0,0,1.989,6.427a4.113,4.113,0,0,0,.68,2.187,3.757,3.757,0,0,0,.387.52,4.3,4.3,0,0,0,3.36,1.52,4.193,4.193,0,0,0,2.8-1.133,3.645,3.645,0,0,0,.84-1.027,4.3,4.3,0,0,0-.867-5.427A4.442,4.442,0,0,0,6.309,2Z" transform="translate(0.344 0.333)" fill="#292d32"></path><path id="Vector-7" data-name="Vector" d="M2.349,4.682a1,1,0,0,1-.693-.28L.308,3.122A1,1,0,0,1,1.7,1.682l.653.627L4.442.282a1,1,0,1,1,1.387,1.44L3.042,4.415a1.077,1.077,0,0,1-.693.267Z" transform="translate(3.585 4.318)" fill="#292d32"></path><path id="Vector-8" data-name="Vector" d="M0,0H32V32H0Z" fill="none" opacity="0"></path></g></g></svg>