<svg xmlns="http://www.w3.org/2000/svg" id="vuesax_outline_card-tick" data-name="vuesax/outline/card-tick" width="32" height="32" viewBox="0 0 32 32"><g id="card-tick"><path id="Vector" d="M16.333,2H1A1.007,1.007,0,0,1,0,1,1.007,1.007,0,0,1,1,0H16.333a1.007,1.007,0,0,1,1,1A1.007,1.007,0,0,1,16.333,2Z" transform="translate(1.667 10.333)" fill="#292d32"></path><path id="Vector-2" data-name="Vector" d="M3.667,2H1A1.007,1.007,0,0,1,0,1,1.007,1.007,0,0,1,1,0H3.667a1.007,1.007,0,0,1,1,1,1.007,1.007,0,0,1-1,1Z" transform="translate(7 21)" fill="#292d32"></path><path id="Vector-3" data-name="Vector" d="M6.333,2H1A1.007,1.007,0,0,1,0,1,1.007,1.007,0,0,1,1,0H6.333a1.007,1.007,0,0,1,1,1A1.007,1.007,0,0,1,6.333,2Z" transform="translate(13 21)" fill="#292d32"></path><path id="Vector-4" data-name="Vector" d="M21.747,24.667H6.92c-5.307,0-6.92-1.6-6.92-6.853V6.853C0,1.6,1.613,0,6.92,0h9.413a1.007,1.007,0,0,1,1,1,1.007,1.007,0,0,1-1,1H6.92C2.733,2,2,2.72,2,6.853V17.8c0,4.133.733,4.853,4.92,4.853H21.733c4.187,0,4.92-.72,4.92-4.853V11.027a1,1,0,0,1,2,0V17.8c.013,5.267-1.6,6.867-6.907,6.867Z" transform="translate(1.667 3.667)" fill="#292d32"></path><path id="Vector-5" data-name="Vector" d="M3,7.33a.989.989,0,0,1-.707-.293l-2-2A1,1,0,1,1,1.7,3.623L3,4.917,7.623.29A1,1,0,1,1,9.037,1.7L3.7,7.037A.989.989,0,0,1,3,7.33Z" transform="translate(21.003 3.67)" fill="#292d32"></path><path id="Vector-6" data-name="Vector" d="M0,0H32V32H0Z" fill="none" opacity="0"></path></g></svg>