<svg xmlns="http://www.w3.org/2000/svg" id="vuesax_outline_verify" data-name="vuesax/outline/verify" width="32" height="32" viewBox="0 0 32 32"><rect id="vuesax_outline_verify-2" data-name="vuesax/outline/verify" width="32" height="32" fill="none"></rect><g id="vuesax_outline_verify-3" data-name="vuesax/outline/verify"><g id="verify"><path id="Vector" d="M4.223,8.437a1,1,0,0,1-.707-.293L.29,4.917A1,1,0,1,1,1.7,3.5l2.52,2.52L9.957.29A1,1,0,0,1,11.37,1.7L4.93,8.143a1,1,0,0,1-.707.293Z" transform="translate(10.163 11.79)" fill="#292d32"></path><path id="Vector-2" data-name="Vector" d="M14.327,28.667a3.584,3.584,0,0,1-2.333-.84L9.887,26.013A2.044,2.044,0,0,0,8.86,25.64H6.567a3.574,3.574,0,0,1-3.573-3.573v-2.28a2,2,0,0,0-.373-1.013l-1.8-2.12a3.673,3.673,0,0,1,0-4.627l1.8-2.12a2,2,0,0,0,.373-1.013V6.6A3.574,3.574,0,0,1,6.567,3.027H8.873A2.177,2.177,0,0,0,9.9,2.653L12.007.84a3.642,3.642,0,0,1,4.653,0l2.107,1.813a2.044,2.044,0,0,0,1.027.373H22.06A3.574,3.574,0,0,1,25.633,6.6V8.867a2.061,2.061,0,0,0,.387,1.027L27.833,12a3.642,3.642,0,0,1,0,4.653L26.02,18.76a2.061,2.061,0,0,0-.387,1.027v2.267a3.574,3.574,0,0,1-3.573,3.573H19.793A2.177,2.177,0,0,0,18.767,26L16.66,27.813a3.527,3.527,0,0,1-2.333.853ZM6.567,5.027A1.576,1.576,0,0,0,4.993,6.6V8.88a3.922,3.922,0,0,1-.853,2.307l-1.8,2.12a1.661,1.661,0,0,0,0,2.04l1.8,2.12a3.955,3.955,0,0,1,.853,2.307v2.28a1.576,1.576,0,0,0,1.573,1.573H8.873a3.926,3.926,0,0,1,2.333.867l2.107,1.813a1.681,1.681,0,0,0,2.053,0l2.107-1.813a4.014,4.014,0,0,1,2.333-.867h2.267a1.576,1.576,0,0,0,1.573-1.573V19.787a3.926,3.926,0,0,1,.867-2.333l1.813-2.107a1.681,1.681,0,0,0,0-2.053l-1.813-2.107a3.926,3.926,0,0,1-.867-2.333V6.6a1.576,1.576,0,0,0-1.573-1.573H19.807a3.926,3.926,0,0,1-2.333-.867L15.367,2.347a1.681,1.681,0,0,0-2.053,0L11.207,4.173a4.033,4.033,0,0,1-2.333.853Z" transform="translate(1.673 1.667)" fill="#292d32"></path><path id="Vector-3" data-name="Vector" d="M0,0H32V32H0Z" fill="none" opacity="0"></path></g></g></svg>