<svg xmlns="http://www.w3.org/2000/svg" id="vuesax_outline_shield-tick" data-name="vuesax/outline/shield-tick" width="32" height="32" viewBox="0 0 32 32"><rect id="vuesax_outline_shield-tick-2" data-name="vuesax/outline/shield-tick" width="32" height="32" fill="none"></rect><g id="vuesax_outline_shield-tick-3" data-name="vuesax/outline/shield-tick"><g id="shield-tick"><path id="Vector" d="M12.467,28.677A6.787,6.787,0,0,1,8.44,27.41L2.707,23.13A7.471,7.471,0,0,1,0,17.743V7.823a5.612,5.612,0,0,1,3.44-4.96L10.093.37a7.712,7.712,0,0,1,4.72,0l6.653,2.493a5.612,5.612,0,0,1,3.44,4.96V17.73A7.447,7.447,0,0,1,22.2,23.117L16.467,27.4a6.573,6.573,0,0,1-4,1.28ZM10.8,2.25,4.147,4.743A3.653,3.653,0,0,0,2.013,7.837v9.907A5.513,5.513,0,0,0,3.907,21.53L9.64,25.81a5.1,5.1,0,0,0,5.667,0l5.733-4.28a5.486,5.486,0,0,0,1.893-3.787V7.823A3.688,3.688,0,0,0,20.8,4.73L14.147,2.237A5.837,5.837,0,0,0,10.8,2.25Z" transform="translate(3.533 1.67)" fill="#292d32"></path><path id="Vector-2" data-name="Vector" d="M3.143,7.73a.989.989,0,0,1-.707-.293L.29,5.29A1,1,0,0,1,1.7,3.877l1.44,1.44L8.17.29A1,1,0,0,1,9.583,1.7L3.85,7.437a.989.989,0,0,1-.707.293Z" transform="translate(11.07 11.243)" fill="#292d32"></path><path id="Vector-3" data-name="Vector" d="M0,0H32V32H0Z" fill="none" opacity="0"></path></g></g></svg>